<svg width="256" height="256" viewBox="0 0 256 256" fill="none" xmlns="http://www.w3.org/2000/svg">
<g clip-path="url(#clip0)">
<mask id="mask0" style="mask-type:luminance" maskUnits="userSpaceOnUse" x="0" y="0" width="256" height="256">
<path d="M192 0H64C28.6538 0 0 28.6538 0 64V192C0 227.346 28.6538 256 64 256H192C227.346 256 256 227.346 256 192V64C256 28.6538 227.346 0 192 0Z" fill="white"/>
</mask>
<g mask="url(#mask0)">
<path d="M192 0H64C28.6538 0 0 28.6538 0 64V192C0 227.346 28.6538 256 64 256H192C227.346 256 256 227.346 256 192V64C256 28.6538 227.346 0 192 0Z" fill="url(#bg_grad)"/>
<path d="M192 0H64C28.6538 0 0 28.6538 0 64V192C0 227.346 28.6538 256 64 256H192C227.346 256 256 227.346 256 192V64C256 28.6538 227.346 0 192 0Z" fill="url(#overlay_grad)"/>
<path d="M192 1.5H64C29.4822 1.5 1.5 29.4822 1.5 64V192C1.5 226.518 29.4822 254.5 64 254.5H192C226.518 254.5 254.5 226.518 254.5 192V64C254.5 29.4822 226.518 1.5 192 1.5Z" stroke="white" stroke-opacity="0.2" stroke-width="3"/>
<g filter="url(#shadow)">
<path d="M172 34H84C67.4315 34 54 47.4315 54 64V192C54 208.569 67.4315 222 84 222H172C188.569 222 202 208.569 202 192V64C202 47.4315 188.569 34 172 34Z" fill="#3D4554"/>
<path d="M172 34H84C67.4315 34 54 47.4315 54 64V192C54 208.569 67.4315 222 84 222H172C188.569 222 202 208.569 202 192V64C202 47.4315 188.569 34 172 34Z" stroke="white" stroke-opacity="0.15" stroke-width="2"/>
<path d="M172 54H84C78.4772 54 74 58.4772 74 64V84C74 89.5228 78.4772 94 84 94H172C177.523 94 182 89.5228 182 84V64C182 58.4772 177.523 54 172 54Z" fill="#D8DEE8"/>
<path d="M91 134C97.6274 134 103 128.627 103 122C103 115.373 97.6274 110 91 110C84.3726 110 79 115.373 79 122C79 128.627 84.3726 134 91 134Z" fill="#D8DEE8"/>
<path d="M128 134C134.627 134 140 128.627 140 122C140 115.373 134.627 110 128 110C121.373 110 116 115.373 116 122C116 128.627 121.373 134 128 134Z" fill="#D8DEE8"/>
<path d="M165 134C171.627 134 177 128.627 177 122C177 115.373 171.627 110 165 110C158.373 110 153 115.373 153 122C153 128.627 158.373 134 165 134Z" fill="#D8DEE8"/>
<path d="M91 168C97.6274 168 103 162.627 103 156C103 149.373 97.6274 144 91 144C84.3726 144 79 149.373 79 156C79 162.627 84.3726 168 91 168Z" fill="#D8DEE8"/>
<path d="M128 168C134.627 168 140 162.627 140 156C140 149.373 134.627 144 128 144C121.373 144 116 149.373 116 156C116 162.627 121.373 168 128 168Z" fill="#D8DEE8"/>
<path d="M165 168C171.627 168 177 162.627 177 156C177 149.373 171.627 144 165 144C158.373 144 153 149.373 153 156C153 162.627 158.373 168 165 168Z" fill="#D8DEE8"/>
<path d="M91 202C97.6274 202 103 196.627 103 190C103 183.373 97.6274 178 91 178C84.3726 178 79 183.373 79 190C79 196.627 84.3726 202 91 202Z" fill="#D8DEE8"/>
<path d="M128 202C134.627 202 140 196.627 140 190C140 183.373 134.627 178 128 178C121.373 178 116 183.373 116 190C116 196.627 121.373 202 128 202Z" fill="#D8DEE8"/>
<path d="M165 202C171.627 202 177 196.627 177 190C177 183.373 171.627 178 165 178C158.373 178 153 183.373 153 190C153 196.627 158.373 202 165 202Z" fill="#D8DEE8"/>
</g>
</g>
</g>
<defs>
<filter id="shadow" x="0" y="0" width="256" height="256" filterUnits="userSpaceOnUse" color-interpolation-filters="sRGB">
<feFlood flood-opacity="0" result="bg"/>
<feColorMatrix in="SourceAlpha" type="matrix" values="0 0 0 0 0 0 0 0 0 0 0 0 0 0 0 0 0 0 127 0" result="hardAlpha"/>
<feOffset dy="8"/>
<feGaussianBlur stdDeviation="14"/>
<feColorMatrix type="matrix" values="0 0 0 0 0.007843 0 0 0 0 0.015686 0 0 0 0 0.039216 0 0 0 0.3 0"/>
<feBlend mode="normal" in2="bg" result="effect1_dropShadow"/>
<feBlend mode="normal" in="SourceGraphic" in2="effect1_dropShadow" result="shape"/>
</filter>
<linearGradient id="bg_grad" x1="128" y1="0" x2="128" y2="256" gradientUnits="userSpaceOnUse">
<stop stop-color="#7C8A9D"/>
<stop offset="1" stop-color="#515F74"/>
</linearGradient>
<linearGradient id="overlay_grad" x1="128" y1="0" x2="128" y2="256" gradientUnits="userSpaceOnUse">
<stop stop-color="white" stop-opacity="0.14"/>
<stop offset="0.3" stop-color="white" stop-opacity="0.03"/>
<stop offset="1" stop-color="#334155" stop-opacity="0.14"/>
</linearGradient>
<clipPath id="clip0">
<rect width="256" height="256" fill="white"/>
</clipPath>
</defs>
</svg>
