<svg width="256" height="256" viewBox="0 0 256 256" fill="none" xmlns="http://www.w3.org/2000/svg">
<g clip-path="url(#clip0)">
<mask id="mask0" style="mask-type:luminance" maskUnits="userSpaceOnUse" x="0" y="0" width="256" height="256">
<path d="M192 0H64C28.6538 0 0 28.6538 0 64V192C0 227.346 28.6538 256 64 256H192C227.346 256 256 227.346 256 192V64C256 28.6538 227.346 0 192 0Z" fill="white"/>
</mask>
<g mask="url(#mask0)">
<path d="M192 0H64C28.6538 0 0 28.6538 0 64V192C0 227.346 28.6538 256 64 256H192C227.346 256 256 227.346 256 192V64C256 28.6538 227.346 0 192 0Z" fill="url(#bg_grad)"/>
<path d="M192 0H64C28.6538 0 0 28.6538 0 64V192C0 227.346 28.6538 256 64 256H192C227.346 256 256 227.346 256 192V64C256 28.6538 227.346 0 192 0Z" fill="url(#overlay_grad)"/>
<path d="M192 1.5H64C29.4822 1.5 1.5 29.4822 1.5 64V192C1.5 226.518 29.4822 254.5 64 254.5H192C226.518 254.5 254.5 226.518 254.5 192V64C254.5 29.4822 226.518 1.5 192 1.5Z" stroke="white" stroke-opacity="0.2" stroke-width="3"/>
<g filter="url(#shadow)">
<path d="M128 216C176.601 216 216 176.601 216 128C216 79.3989 176.601 40 128 40C79.3989 40 40 79.3989 40 128C40 176.601 79.3989 216 128 216Z" fill="#F4F6F9"/>
<path d="M128 216C176.601 216 216 176.601 216 128C216 79.3989 176.601 40 128 40C79.3989 40 40 79.3989 40 128C40 176.601 79.3989 216 128 216Z" stroke="white" stroke-width="2"/>
<path d="M128 128V74" stroke="#3A4049" stroke-width="14" stroke-linecap="round" stroke-linejoin="round"/>
<path d="M128 128L166 166" stroke="#3A4049" stroke-width="12" stroke-linecap="round" stroke-linejoin="round"/>
<path d="M128 138C133.523 138 138 133.523 138 128C138 122.477 133.523 118 128 118C122.477 118 118 122.477 118 128C118 133.523 122.477 138 128 138Z" fill="#3A4049"/>
</g>
</g>
</g>
<defs>
<filter id="shadow" x="0" y="0" width="256" height="256" filterUnits="userSpaceOnUse" color-interpolation-filters="sRGB">
<feFlood flood-opacity="0" result="bg"/>
<feColorMatrix in="SourceAlpha" type="matrix" values="0 0 0 0 0 0 0 0 0 0 0 0 0 0 0 0 0 0 127 0" result="hardAlpha"/>
<feOffset dy="8"/>
<feGaussianBlur stdDeviation="14"/>
<feColorMatrix type="matrix" values="0 0 0 0 0.007843 0 0 0 0 0.015686 0 0 0 0 0.039216 0 0 0 0.3 0"/>
<feBlend mode="normal" in2="bg" result="effect1_dropShadow"/>
<feBlend mode="normal" in="SourceGraphic" in2="effect1_dropShadow" result="shape"/>
</filter>
<linearGradient id="bg_grad" x1="128" y1="0" x2="128" y2="256" gradientUnits="userSpaceOnUse">
<stop stop-color="#656D77"/>
<stop offset="1" stop-color="#3C424A"/>
</linearGradient>
<linearGradient id="overlay_grad" x1="128" y1="0" x2="128" y2="256" gradientUnits="userSpaceOnUse">
<stop stop-color="white" stop-opacity="0.14"/>
<stop offset="0.3" stop-color="white" stop-opacity="0.03"/>
<stop offset="1" stop-color="#1E293B" stop-opacity="0.14"/>
</linearGradient>
<clipPath id="clip0">
<rect width="256" height="256" fill="white"/>
</clipPath>
</defs>
</svg>
