<svg width="256" height="256" viewBox="0 0 256 256" fill="none" xmlns="http://www.w3.org/2000/svg">
<g clip-path="url(#clip0_35_23)">
<g filter="url(#filter0_ii_35_23)">
<rect width="256" height="256" rx="64" fill="url(#paint0_linear_35_23)"/>
</g>
<g filter="url(#filter1_d_35_23)">
<path d="M46 110.131V79.1475C46 67.4426 55.7426 58 67.8193 58H98.0619C104.963 58 111.417 61.3443 115.253 66.9115L123.636 79.0885C125.97 82.4918 129.928 84.5574 134.15 84.5574H190.616C201.313 84.5574 210 92.977 210 103.344V118H46V110.131Z" fill="url(#paint1_linear_35_23)"/>
<path d="M46 105.5C46 96.94 52.94 90 61.5 90H194.5C203.06 90 210 96.94 210 105.5V186.5C210 197.26 201.26 206 190.5 206H65.5C54.74 206 46 197.26 46 186.5V105.5Z" fill="url(#paint2_linear_35_23)"/>
<path opacity="0.42" d="M61.5 90H194.5C203.06 90 210 96.94 210 105.5V112H46V105.5C46 96.94 52.94 90 61.5 90Z" fill="white"/>
<path opacity="0.55" d="M64.5 95H191.5C198.92 95 205 101.08 205 108.5" stroke="white" stroke-width="2" stroke-linecap="round"/>
</g>
</g>
<defs>
<filter id="filter0_ii_35_23" x="0" y="-1" width="256" height="257.5" filterUnits="userSpaceOnUse" color-interpolation-filters="sRGB">
<feFlood flood-opacity="0" result="BackgroundImageFix"/>
<feBlend mode="normal" in="SourceGraphic" in2="BackgroundImageFix" result="shape"/>
<feColorMatrix in="SourceAlpha" type="matrix" values="0 0 0 0 0 0 0 0 0 0 0 0 0 0 0 0 0 0 127 0" result="hardAlpha"/>
<feOffset dy="2"/>
<feGaussianBlur stdDeviation="0.25"/>
<feComposite in2="hardAlpha" operator="arithmetic" k2="-1" k3="1"/>
<feColorMatrix type="matrix" values="0 0 0 0 1 0 0 0 0 1 0 0 0 0 1 0 0 0 0.4 0"/>
<feBlend mode="normal" in2="shape" result="effect1_innerShadow_35_23"/>
<feColorMatrix in="SourceAlpha" type="matrix" values="0 0 0 0 0 0 0 0 0 0 0 0 0 0 0 0 0 0 127 0" result="hardAlpha"/>
<feOffset dy="-2"/>
<feGaussianBlur stdDeviation="0.5"/>
<feComposite in2="hardAlpha" operator="arithmetic" k2="-1" k3="1"/>
<feColorMatrix type="matrix" values="0 0 0 0 0 0 0 0 0 0 0 0 0 0 0 0 0 0 0.2 0"/>
<feBlend mode="normal" in2="effect1_innerShadow_35_23" result="effect2_innerShadow_35_23"/>
</filter>
<filter id="filter1_d_35_23" x="4" y="8" width="248" height="248" filterUnits="userSpaceOnUse" color-interpolation-filters="sRGB">
<feFlood flood-opacity="0" result="BackgroundImageFix"/>
<feColorMatrix in="SourceAlpha" type="matrix" values="0 0 0 0 0 0 0 0 0 0 0 0 0 0 0 0 0 0 127 0" result="hardAlpha"/>
<feOffset dy="4"/>
<feGaussianBlur stdDeviation="2"/>
<feColorMatrix type="matrix" values="0 0 0 0 0 0 0 0 0 0 0 0 0 0 0 0 0 0 0.25 0"/>
<feBlend mode="normal" in2="BackgroundImageFix" result="effect1_dropShadow_35_23"/>
<feBlend mode="normal" in="SourceGraphic" in2="effect1_dropShadow_35_23" result="shape"/>
</filter>
<linearGradient id="paint0_linear_35_23" x1="128" y1="0" x2="128" y2="256" gradientUnits="userSpaceOnUse">
<stop stop-color="#41A5FF"/>
<stop offset="1" stop-color="#0058FF"/>
</linearGradient>
<linearGradient id="paint1_linear_35_23" x1="62.2376" y1="56.0328" x2="184.184" y2="126.162" gradientUnits="userSpaceOnUse">
<stop stop-color="white" stop-opacity="0.86"/>
<stop offset="1" stop-color="white" stop-opacity="0.52"/>
</linearGradient>
<linearGradient id="paint2_linear_35_23" x1="68" y1="80" x2="192" y2="206" gradientUnits="userSpaceOnUse">
<stop stop-color="white"/>
<stop offset="0.58" stop-color="#F7F8FA"/>
<stop offset="1" stop-color="#E9EBF0"/>
</linearGradient>
<clipPath id="clip0_35_23">
<rect width="256" height="256" fill="white"/>
</clipPath>
</defs>
</svg>
