<svg width="256" height="256" viewBox="0 0 256 256" fill="none" xmlns="http://www.w3.org/2000/svg">
<g clip-path="url(#clip0_100_40)">
<mask id="mask0_100_40" style="mask-type:luminance" maskUnits="userSpaceOnUse" x="0" y="0" width="256" height="256">
<path d="M192 0H64C28.6538 0 0 28.6538 0 64V192C0 227.346 28.6538 256 64 256H192C227.346 256 256 227.346 256 192V64C256 28.6538 227.346 0 192 0Z" fill="white"/>
</mask>
<g mask="url(#mask0_100_40)">
<path d="M192 0H64C28.6538 0 0 28.6538 0 64V192C0 227.346 28.6538 256 64 256H192C227.346 256 256 227.346 256 192V64C256 28.6538 227.346 0 192 0Z" fill="url(#paint0_linear_100_40)"/>
<path d="M192 0H64C28.6538 0 0 28.6538 0 64V192C0 227.346 28.6538 256 64 256H192C227.346 256 256 227.346 256 192V64C256 28.6538 227.346 0 192 0Z" fill="url(#paint1_linear_100_40)"/>
<path d="M192 1.5H64C29.4822 1.5 1.5 29.4822 1.5 64V192C1.5 226.518 29.4822 254.5 64 254.5H192C226.518 254.5 254.5 226.518 254.5 192V64C254.5 29.4822 226.518 1.5 192 1.5Z" stroke="white" stroke-opacity="0.2" stroke-width="3"/>
<g filter="url(#filter0_d_100_40)">
<path d="M53 115V80C53 67.8 62.8 58 75 58H99.5C106 58 112.1 61 116.1 66.1L126.2 79C129.2 82.8 133.8 85 138.6 85H180C192.2 85 202 94.8 202 107V125H53V115Z" fill="url(#paint2_linear_100_40)"/>
<path d="M53 112C53 99.8 62.3603 90 74.0128 90H180.987C192.64 90 202 99.8 202 112V175C202 188.3 191.78 199 179.077 199H75.9231C63.2199 199 53 188.3 53 175V112Z" fill="url(#paint3_linear_100_40)"/>
<path d="M55 112C55 100.9 63.4901 92 74.0789 92H180.921C191.51 92 200 100.9 200 112V175C200 187.2 190.651 197 179.013 197H75.9868C64.3487 197 55 187.2 55 175V112Z" stroke="white" stroke-opacity="0.38" stroke-width="3"/>
<path d="M62 111H186" stroke="white" stroke-opacity="0.28" stroke-width="6" stroke-linecap="round"/>
</g>
</g>
</g>
<defs>
<filter id="filter0_d_100_40" x="25" y="38" width="205" height="197" filterUnits="userSpaceOnUse" color-interpolation-filters="sRGB">
<feFlood flood-opacity="0" result="BackgroundImageFix"/>
<feColorMatrix in="SourceAlpha" type="matrix" values="0 0 0 0 0 0 0 0 0 0 0 0 0 0 0 0 0 0 127 0" result="hardAlpha"/>
<feOffset dy="8"/>
<feGaussianBlur stdDeviation="14"/>
<feColorMatrix type="matrix" values="0 0 0 0 0.007843 0 0 0 0 0.015686 0 0 0 0 0.039216 0 0 0 0.28 0"/>
<feBlend mode="normal" in2="BackgroundImageFix" result="effect1_dropShadow_100_40"/>
<feBlend mode="normal" in="SourceGraphic" in2="effect1_dropShadow_100_40" result="shape"/>
</filter>
<linearGradient id="paint0_linear_100_40" x1="128" y1="0" x2="128" y2="256" gradientUnits="userSpaceOnUse">
<stop stop-color="#3B82F6"/>
<stop offset="1" stop-color="#1D4ED8"/>
</linearGradient>
<linearGradient id="paint1_linear_100_40" x1="128" y1="0" x2="128" y2="256" gradientUnits="userSpaceOnUse">
<stop stop-color="white" stop-opacity="0.14"/>
<stop offset="0.3" stop-color="white" stop-opacity="0.03"/>
<stop offset="1" stop-color="#1E3A8A" stop-opacity="0.14"/>
</linearGradient>
<linearGradient id="paint2_linear_100_40" x1="126" y1="55" x2="126" y2="113" gradientUnits="userSpaceOnUse">
<stop stop-color="#BFDBFE" stop-opacity="0.66"/>
<stop offset="1" stop-color="#DBEAFE" stop-opacity="0.34"/>
</linearGradient>
<linearGradient id="paint3_linear_100_40" x1="127.5" y1="87" x2="127.5" y2="199" gradientUnits="userSpaceOnUse">
<stop stop-color="#DBEAFE" stop-opacity="0.84"/>
<stop offset="0.58" stop-color="#BFDBFE" stop-opacity="0.62"/>
<stop offset="1" stop-color="#93C5FD" stop-opacity="0.46"/>
</linearGradient>
<clipPath id="clip0_100_40">
<rect width="256" height="256" fill="white"/>
</clipPath>
</defs>
</svg>
