<svg width="256" height="256" viewBox="0 0 256 256" fill="none" xmlns="http://www.w3.org/2000/svg">
<g clip-path="url(#clip0)">
<mask id="mask0" style="mask-type:luminance" maskUnits="userSpaceOnUse" x="0" y="0" width="256" height="256">
<path d="M192 0H64C28.6538 0 0 28.6538 0 64V192C0 227.346 28.6538 256 64 256H192C227.346 256 256 227.346 256 192V64C256 28.6538 227.346 0 192 0Z" fill="white"/>
</mask>
<g mask="url(#mask0)">
<path d="M192 0H64C28.6538 0 0 28.6538 0 64V192C0 227.346 28.6538 256 64 256H192C227.346 256 256 227.346 256 192V64C256 28.6538 227.346 0 192 0Z" fill="url(#bg_grad)"/>
<path d="M192 0H64C28.6538 0 0 28.6538 0 64V192C0 227.346 28.6538 256 64 256H192C227.346 256 256 227.346 256 192V64C256 28.6538 227.346 0 192 0Z" fill="url(#overlay_grad)"/>
<path d="M192 1.5H64C29.4822 1.5 1.5 29.4822 1.5 64V192C1.5 226.518 29.4822 254.5 64 254.5H192C226.518 254.5 254.5 226.518 254.5 192V64C254.5 29.4822 226.518 1.5 192 1.5Z" stroke="white" stroke-opacity="0.2" stroke-width="3"/>
<g filter="url(#shadow)">
<path d="M164 48H92C77.6406 48 66 59.6406 66 74V182C66 196.359 77.6406 208 92 208H164C178.359 208 190 196.359 190 182V74C190 59.6406 178.359 48 164 48Z" fill="url(#body_grad)"/>
<path d="M164 50H92C78.7452 50 68 60.7452 68 74V182C68 195.255 78.7452 206 92 206H164C177.255 206 188 195.255 188 182V74C188 60.7452 177.255 50 164 50Z" stroke="white" stroke-opacity="0.26" stroke-width="3"/>
<path d="M91 85H165" stroke="white" stroke-opacity="0.9" stroke-width="10" stroke-linecap="round"/>
<path d="M91 113H123" stroke="white" stroke-opacity="0.5" stroke-width="10" stroke-linecap="round"/>
<path d="M136 113H165" stroke="#7DD3FC" stroke-width="10" stroke-linecap="round"/>
<path d="M91 141H153" stroke="white" stroke-opacity="0.5" stroke-width="10" stroke-linecap="round"/>
<path d="M91 169H134" stroke="white" stroke-opacity="0.5" stroke-width="10" stroke-linecap="round"/>
</g>
</g>
</g>
<defs>
<filter id="shadow" x="38" y="28" width="180" height="216" filterUnits="userSpaceOnUse" color-interpolation-filters="sRGB">
<feFlood flood-opacity="0" result="bg"/>
<feColorMatrix in="SourceAlpha" type="matrix" values="0 0 0 0 0 0 0 0 0 0 0 0 0 0 0 0 0 0 127 0" result="hardAlpha"/>
<feOffset dy="8"/>
<feGaussianBlur stdDeviation="14"/>
<feColorMatrix type="matrix" values="0 0 0 0 0.007843 0 0 0 0 0.015686 0 0 0 0 0.039216 0 0 0 0.32 0"/>
<feBlend mode="normal" in2="bg" result="effect1_dropShadow"/>
<feBlend mode="normal" in="SourceGraphic" in2="effect1_dropShadow" result="shape"/>
</filter>
<linearGradient id="bg_grad" x1="128" y1="0" x2="128" y2="256" gradientUnits="userSpaceOnUse">
<stop stop-color="#334155"/>
<stop offset="1" stop-color="#1E293B"/>
</linearGradient>
<linearGradient id="overlay_grad" x1="128" y1="0" x2="128" y2="256" gradientUnits="userSpaceOnUse">
<stop stop-color="white" stop-opacity="0.14"/>
<stop offset="0.3" stop-color="white" stop-opacity="0.03"/>
<stop offset="1" stop-color="#020617" stop-opacity="0.14"/>
</linearGradient>
<linearGradient id="body_grad" x1="66" y1="48" x2="190" y2="208" gradientUnits="userSpaceOnUse">
<stop stop-color="#F8FAFC" stop-opacity="0.3"/>
<stop offset="1" stop-color="#CBD5E1" stop-opacity="0.13"/>
</linearGradient>
<clipPath id="clip0">
<rect width="256" height="256" fill="white"/>
</clipPath>
</defs>
</svg>
