<svg width="256" height="256" viewBox="0 0 256 256" fill="none" xmlns="http://www.w3.org/2000/svg">
<g clip-path="url(#clip0_100_28)">
<mask id="mask0_100_28" style="mask-type:luminance" maskUnits="userSpaceOnUse" x="0" y="0" width="256" height="256">
<path d="M192 0H64C28.6538 0 0 28.6538 0 64V192C0 227.346 28.6538 256 64 256H192C227.346 256 256 227.346 256 192V64C256 28.6538 227.346 0 192 0Z" fill="white"/>
</mask>
<g mask="url(#mask0_100_28)">
<path d="M192 0H64C28.6538 0 0 28.6538 0 64V192C0 227.346 28.6538 256 64 256H192C227.346 256 256 227.346 256 192V64C256 28.6538 227.346 0 192 0Z" fill="url(#paint0_linear_100_28)"/>
<path d="M192 0H64C28.6538 0 0 28.6538 0 64V192C0 227.346 28.6538 256 64 256H192C227.346 256 256 227.346 256 192V64C256 28.6538 227.346 0 192 0Z" fill="url(#paint1_linear_100_28)"/>
<path d="M192 1.5H64C29.4822 1.5 1.5 29.4822 1.5 64V192C1.5 226.518 29.4822 254.5 64 254.5H192C226.518 254.5 254.5 226.518 254.5 192V64C254.5 29.4822 226.518 1.5 192 1.5Z" stroke="white" stroke-opacity="0.16" stroke-width="3"/>
<g filter="url(#filter0_d_100_28)">
<path d="M72 84L132 128L72 172" stroke="white" stroke-opacity="0.96" stroke-width="18" stroke-linecap="round" stroke-linejoin="round"/>
<path d="M150 172H184" stroke="#7DD3FC" stroke-width="18" stroke-linecap="round"/>
</g>
</g>
</g>
<defs>
<filter id="filter0_d_100_28" x="34.9994" y="54.9994" width="186.001" height="162.001" filterUnits="userSpaceOnUse" color-interpolation-filters="sRGB">
<feFlood flood-opacity="0" result="BackgroundImageFix"/>
<feColorMatrix in="SourceAlpha" type="matrix" values="0 0 0 0 0 0 0 0 0 0 0 0 0 0 0 0 0 0 127 0" result="hardAlpha"/>
<feOffset dy="8"/>
<feGaussianBlur stdDeviation="14"/>
<feColorMatrix type="matrix" values="0 0 0 0 0.007843 0 0 0 0 0.015686 0 0 0 0 0.039216 0 0 0 0.36 0"/>
<feBlend mode="normal" in2="BackgroundImageFix" result="effect1_dropShadow_100_28"/>
<feBlend mode="normal" in="SourceGraphic" in2="effect1_dropShadow_100_28" result="shape"/>
</filter>
<linearGradient id="paint0_linear_100_28" x1="128" y1="0" x2="128" y2="256" gradientUnits="userSpaceOnUse">
<stop stop-color="#334155"/>
<stop offset="0.54" stop-color="#1E293B"/>
<stop offset="1" stop-color="#0F172A"/>
</linearGradient>
<linearGradient id="paint1_linear_100_28" x1="128" y1="0" x2="128" y2="256" gradientUnits="userSpaceOnUse">
<stop stop-color="white" stop-opacity="0.1"/>
<stop offset="0.28" stop-color="white" stop-opacity="0.02"/>
<stop offset="1" stop-color="#020617" stop-opacity="0.12"/>
</linearGradient>
<clipPath id="clip0_100_28">
<rect width="256" height="256" fill="white"/>
</clipPath>
</defs>
</svg>
