<svg width="2560" height="1440" viewBox="0 0 2560 1440" fill="none" xmlns="http://www.w3.org/2000/svg">
<g clip-path="url(#clip0_113_264)">
<path d="M2560 0H0V1440H2560V0Z" fill="#0D0C1D"/>
<path d="M2560 1233.12C2300.3 1202.88 2040.89 1172.4 1829.26 1068C1617.92 963.36 1454.36 784.32 1340.59 594C1226.81 403.68 1162.81 201.84 1098.52 0H2560V1233.12Z" fill="#1B1A29"/>
<path d="M2560 1027.68C2343.54 1002.24 2127.36 977.04 1951 889.92C1774.93 802.8 1638.68 653.52 1543.96 495.12C1448.96 336.48 1395.48 168.24 1342.01 0H2560V1027.68Z" fill="#373444"/>
<path d="M2560 822C2387.06 801.84 2213.83 781.68 2072.75 711.84C1931.95 642.24 1823 522.96 1747.06 396C1671.11 269.04 1628.44 134.64 1585.78 0H2560V822Z" fill="#544F60"/>
<path d="M2560 616.56C2430.29 601.44 2300.3 586.32 2194.77 534C2088.96 481.68 2007.32 392.16 1950.44 297.12C1893.55 201.84 1861.4 100.8 1829.26 0H2560V616.56Z" fill="#746D7D"/>
<path d="M2560 411.12C2473.53 401.04 2387.06 390.72 2316.52 355.92C2245.97 321.12 2191.36 261.36 2153.53 198C2115.7 134.64 2094.36 67.2 2072.75 0H2560V411.12Z" fill="#958C9C"/>
<path d="M2560 205.44C2516.76 200.4 2473.53 195.36 2438.26 178.08C2402.99 160.56 2375.68 130.8 2356.91 99.12C2337.85 67.2 2327.04 33.6 2316.52 0H2560V205.44Z" fill="#A69CAC"/>
<path d="M0 206.88C260.836 236.64 521.956 266.16 730.738 372C939.52 478.08 1096.53 660 1209.46 850.8C1322.67 1041.6 1392.07 1240.8 1461.48 1440H0V206.88Z" fill="#1B1A29"/>
<path d="M0 412.32C217.316 437.04 434.916 461.76 608.996 550.08C783.076 638.4 913.635 790.08 1007.79 948.96C1102.22 1107.84 1159.96 1273.92 1217.99 1440H0V412.32Z" fill="#373444"/>
<path d="M0 618C174.08 637.68 347.876 657.36 487.253 728.16C626.347 798.72 731.022 920.16 806.4 1047.12C881.778 1174.32 928.142 1307.28 974.222 1440H0V618Z" fill="#544F60"/>
<path d="M0 823.44C130.56 838.32 260.836 853.2 365.227 906C469.902 959.04 548.124 1050 604.729 1145.28C661.333 1240.8 696.035 1340.4 730.738 1440H0V823.44Z" fill="#746D7D"/>
<path d="M0 1028.88C87.04 1038.96 174.08 1048.8 243.484 1084.08C313.173 1119.36 365.511 1180.08 403.058 1243.68C440.889 1307.28 463.929 1373.52 487.253 1440H0V1028.88Z" fill="#958C9C"/>
<path d="M0 1234.56C43.52 1239.36 87.04 1244.4 121.742 1261.92C156.729 1279.68 182.613 1309.92 201.671 1341.84C220.444 1373.52 232.107 1406.88 243.484 1440H0V1234.56Z" fill="#A69CAC"/>
</g>
<defs>
<clipPath id="clip0_113_264">
<rect width="2560" height="1440" fill="white"/>
</clipPath>
</defs>
</svg>
