<svg width="65" height="96" viewBox="0 0 65 96" fill="none" xmlns="http://www.w3.org/2000/svg">
<path d="M32.3636 95.6364C25.5152 95.6364 19.6818 93.7727 14.8636 90.0455C10.0455 86.2879 6.36364 80.8485 3.81818 73.7273C1.27273 66.5758 0 57.9394 0 47.8182C0 37.7576 1.27273 29.1667 3.81818 22.0455C6.39394 14.8939 10.0909 9.43939 14.9091 5.68182C19.7576 1.89394 25.5758 0 32.3636 0C39.1515 0 44.9545 1.89394 49.7727 5.68182C54.6212 9.43939 58.3182 14.8939 60.8636 22.0455C63.4394 29.1667 64.7273 37.7576 64.7273 47.8182C64.7273 57.9394 63.4545 66.5758 60.9091 73.7273C58.3636 80.8485 54.6818 86.2879 49.8636 90.0455C45.0455 93.7727 39.2121 95.6364 32.3636 95.6364ZM32.3636 85.6364C39.1515 85.6364 44.4242 82.3636 48.1818 75.8182C51.9394 69.2727 53.8182 59.9394 53.8182 47.8182C53.8182 39.7576 52.9545 32.8939 51.2273 27.2273C49.5303 21.5606 47.0758 17.2424 43.8636 14.2727C40.6818 11.303 36.8485 9.81818 32.3636 9.81818C25.6364 9.81818 20.3788 13.1364 16.5909 19.7727C12.803 26.3788 10.9091 35.7273 10.9091 47.8182C10.9091 55.8788 11.7576 62.7273 13.4545 68.3636C15.1515 74 17.5909 78.2879 20.7727 81.2273C23.9848 84.1667 27.8485 85.6364 32.3636 85.6364Z" fill="black"/>
</svg>
