<svg width="59" height="95" viewBox="0 0 59 95" fill="none" xmlns="http://www.w3.org/2000/svg">
<path d="M0 94.3636V86.1818L30.7273 52.5455C34.3333 48.6061 37.303 45.1818 39.6364 42.2727C41.9697 39.3333 43.697 36.5758 44.8182 34C45.9697 31.3939 46.5455 28.6667 46.5455 25.8182C46.5455 22.5455 45.7576 19.7121 44.1818 17.3182C42.6364 14.9242 40.5152 13.0758 37.8182 11.7727C35.1212 10.4697 32.0909 9.81818 28.7273 9.81818C25.1515 9.81818 22.0303 10.5606 19.3636 12.0455C16.7273 13.5 14.6818 15.5455 13.2273 18.1818C11.803 20.8182 11.0909 23.9091 11.0909 27.4545H0.363636C0.363636 22 1.62121 17.2121 4.13636 13.0909C6.65152 8.9697 10.0758 5.75757 14.4091 3.45454C18.7727 1.15151 23.6667 0 29.0909 0C34.5455 0 39.3788 1.15151 43.5909 3.45454C47.803 5.75757 51.1061 8.86363 53.5 12.7727C55.8939 16.6818 57.0909 21.0303 57.0909 25.8182C57.0909 29.2424 56.4697 32.5909 55.2273 35.8636C54.0152 39.1061 51.8939 42.7273 48.8636 46.7273C45.8636 50.697 41.697 55.5455 36.3636 61.2727L15.4545 83.6364V84.3636H58.7273V94.3636H0Z" fill="black"/>
</svg>
