<svg width="64" height="96" viewBox="0 0 64 96" fill="none" xmlns="http://www.w3.org/2000/svg">
<path d="M31.6364 95.6364C25.6364 95.6364 20.2879 94.6061 15.5909 92.5455C10.9242 90.4848 7.21212 87.6212 4.45455 83.9546C1.72727 80.2576 0.242424 75.9697 0 71.0909H11.4545C11.697 74.0909 12.7273 76.6818 14.5455 78.8636C16.3636 81.0152 18.7424 82.6818 21.6818 83.8636C24.6212 85.0455 27.8788 85.6364 31.4545 85.6364C35.4545 85.6364 39 84.9394 42.0909 83.5455C45.1818 82.1515 47.6061 80.2121 49.3636 77.7273C51.1212 75.2424 52 72.3636 52 69.0909C52 65.6667 51.1515 62.6515 49.4545 60.0455C47.7576 57.4091 45.2727 55.3485 42 53.8636C38.7273 52.3788 34.7273 51.6364 30 51.6364H22.5455V41.6364H30C33.697 41.6364 36.9394 40.9697 39.7273 39.6364C42.5455 38.303 44.7424 36.4242 46.3182 34C47.9242 31.5758 48.7273 28.7273 48.7273 25.4545C48.7273 22.303 48.0303 19.5606 46.6364 17.2273C45.2424 14.8939 43.2727 13.0758 40.7273 11.7727C38.2121 10.4697 35.2424 9.81818 31.8182 9.81818C28.6061 9.81818 25.5758 10.4091 22.7273 11.5909C19.9091 12.7424 17.6061 14.4242 15.8182 16.6364C14.0303 18.8182 13.0606 21.4545 12.9091 24.5455H2C2.18182 19.6667 3.65152 15.3939 6.40909 11.7273C9.16667 8.0303 12.7727 5.15151 17.2273 3.09091C21.7121 1.0303 26.6364 0 32 0C37.7576 0 42.697 1.16667 46.8182 3.5C50.9394 5.80303 54.1061 8.84849 56.3182 12.6364C58.5303 16.4242 59.6364 20.5152 59.6364 24.9091C59.6364 30.1515 58.2576 34.6212 55.5 38.3182C52.7727 42.0152 49.0606 44.5758 44.3636 46V46.7273C50.2424 47.697 54.8333 50.197 58.1364 54.2273C61.4394 58.2273 63.0909 63.1818 63.0909 69.0909C63.0909 74.1515 61.7121 78.697 58.9546 82.7273C56.2273 86.7273 52.5 89.8788 47.7727 92.1818C43.0455 94.4849 37.6667 95.6364 31.6364 95.6364Z" fill="black"/>
</svg>
