<svg width="60" height="95" viewBox="0 0 60 95" fill="none" xmlns="http://www.w3.org/2000/svg">
<path d="M28.9091 94.3636C23.5758 94.3636 18.7727 93.303 14.5 91.1818C10.2273 89.0606 6.80303 86.1515 4.22727 82.4545C1.65152 78.7576 0.242424 74.5455 0 69.8182H10.9091C11.3333 74.0303 13.2424 77.5152 16.6364 80.2727C20.0606 83 24.1515 84.3636 28.9091 84.3636C32.7273 84.3636 36.1212 83.4697 39.0909 81.6818C42.0909 79.8939 44.4394 77.4394 46.1364 74.3182C47.8636 71.1667 48.7273 67.6061 48.7273 63.6364C48.7273 59.5758 47.8333 55.9545 46.0455 52.7727C44.2879 49.5606 41.8636 47.0303 38.7727 45.1818C35.6818 43.3333 32.1515 42.3939 28.1818 42.3636C25.3333 42.3333 22.4091 42.7727 19.4091 43.6818C16.4091 44.5606 13.9394 45.697 12 47.0909L1.45455 45.8182L7.09091 0H55.4545V10H16.5455L13.2727 37.4545H13.8182C15.7273 35.9394 18.1212 34.6818 21 33.6818C23.8788 32.6818 26.8788 32.1818 30 32.1818C35.697 32.1818 40.7727 33.5455 45.2273 36.2727C49.7121 38.9697 53.2273 42.6667 55.7727 47.3636C58.3485 52.0606 59.6364 57.4242 59.6364 63.4545C59.6364 69.3939 58.303 74.697 55.6364 79.3636C53 84 49.3636 87.6667 44.7273 90.3636C40.0909 93.0303 34.8182 94.3636 28.9091 94.3636Z" fill="black"/>
</svg>
