<svg width="64" height="96" viewBox="0 0 64 96" fill="none" xmlns="http://www.w3.org/2000/svg">
<path d="M32.3636 95.6364C28.5455 95.5758 24.7273 94.8485 20.9091 93.4546C17.0909 92.0606 13.6061 89.7121 10.4545 86.4091C7.30303 83.0758 4.77273 78.5758 2.86364 72.9091C0.954546 67.2121 0 60.0606 0 51.4545C0 43.2121 0.772727 35.9091 2.31818 29.5455C3.86364 23.1515 6.10606 17.7727 9.04546 13.4091C11.9848 9.01515 15.5303 5.68182 19.6818 3.40909C23.8636 1.13636 28.5758 0 33.8182 0C39.0303 0 43.6667 1.04546 47.7273 3.13637C51.8182 5.19697 55.1515 8.07576 57.7273 11.7727C60.303 15.4697 61.9697 19.7273 62.7273 24.5455H51.6364C50.6061 20.3636 48.6061 16.8939 45.6364 14.1364C42.6667 11.3788 38.7273 10 33.8182 10C26.6061 10 20.9242 13.1364 16.7727 19.4091C12.6515 25.6818 10.5758 34.4849 10.5455 45.8182H11.2727C12.9697 43.2424 14.9848 41.0455 17.3182 39.2273C19.6818 37.3788 22.2879 35.9545 25.1364 34.9545C27.9849 33.9545 31 33.4545 34.1818 33.4545C39.5151 33.4545 44.3939 34.7879 48.8182 37.4545C53.2424 40.0909 56.7879 43.7424 59.4546 48.4091C62.1212 53.0455 63.4546 58.3636 63.4546 64.3636C63.4546 70.1212 62.1667 75.3939 59.5909 80.1818C57.0152 84.9394 53.3939 88.7273 48.7273 91.5455C44.0909 94.3333 38.6364 95.697 32.3636 95.6364ZM32.3636 85.6364C36.1818 85.6364 39.6061 84.6818 42.6364 82.7727C45.697 80.8636 48.1061 78.303 49.8636 75.0909C51.6515 71.8788 52.5455 68.303 52.5455 64.3636C52.5455 60.5152 51.6818 57.0152 49.9545 53.8636C48.2576 50.6818 45.9091 48.1515 42.9091 46.2727C39.9394 44.3939 36.5455 43.4545 32.7273 43.4545C29.8485 43.4545 27.1667 44.0303 24.6818 45.1818C22.197 46.303 20.0152 47.8485 18.1364 49.8182C16.2879 51.7879 14.8333 54.0455 13.7727 56.5909C12.7121 59.1061 12.1818 61.7576 12.1818 64.5455C12.1818 68.2424 13.0455 71.697 14.7727 74.9091C16.5303 78.1212 18.9242 80.7121 21.9545 82.6818C25.0152 84.6515 28.4849 85.6364 32.3636 85.6364Z" fill="black"/>
</svg>
