<svg width="64" height="96" viewBox="0 0 64 96" fill="none" xmlns="http://www.w3.org/2000/svg">
<path d="M31.6372 95.6364C25.3948 95.6364 19.8796 94.5303 15.0918 92.3182C10.3342 90.0758 6.62207 87 3.9554 83.0909C1.28874 79.1515 -0.0294454 74.6667 0.000857631 69.6364C-0.0294454 65.697 0.743282 62.0606 2.31904 58.7273C3.8948 55.3636 6.04631 52.5606 8.77359 50.3182C11.5312 48.0455 14.6069 46.6061 18.0009 46V45.4545C13.5463 44.303 10.0009 41.803 7.36449 37.9545C4.72813 34.0758 3.4251 29.6667 3.4554 24.7273C3.4251 20 4.62207 15.7727 7.04631 12.0455C9.47055 8.31818 12.8039 5.37879 17.0463 3.22727C21.319 1.07576 26.1827 0 31.6372 0C37.0312 0 41.8493 1.07576 46.0918 3.22727C50.3342 5.37879 53.6675 8.31818 56.0918 12.0455C58.5463 15.7727 59.7887 20 59.819 24.7273C59.7887 29.6667 58.4403 34.0758 55.7736 37.9545C53.1372 41.803 49.6372 44.303 45.2736 45.4545V46C48.6372 46.6061 51.6675 48.0455 54.3645 50.3182C57.0615 52.5606 59.213 55.3636 60.819 58.7273C62.4251 62.0606 63.2433 65.697 63.2736 69.6364C63.2433 74.6667 61.8796 79.1515 59.1827 83.0909C56.516 87 52.8039 90.0758 48.0463 92.3182C43.319 94.5303 37.8493 95.6364 31.6372 95.6364ZM31.6372 85.6364C35.8493 85.6364 39.4857 84.9545 42.5463 83.5909C45.6069 82.2273 47.9706 80.303 49.6372 77.8182C51.3039 75.3333 52.1524 72.4242 52.1827 69.0909C52.1524 65.5758 51.2433 62.4697 49.4554 59.7727C47.6675 57.0758 45.2281 54.9545 42.1372 53.4091C39.0766 51.8636 35.5766 51.0909 31.6372 51.0909C27.6675 51.0909 24.1221 51.8636 21.0009 53.4091C17.9099 54.9545 15.4706 57.0758 13.6827 59.7727C11.9251 62.4697 11.0615 65.5758 11.0918 69.0909C11.0615 72.4242 11.8645 75.3333 13.5009 77.8182C15.1675 80.303 17.5463 82.2273 20.6372 83.5909C23.7281 84.9545 27.3948 85.6364 31.6372 85.6364ZM31.6372 41.4545C34.9706 41.4545 37.9251 40.7879 40.5009 39.4545C43.1069 38.1212 45.1524 36.2576 46.6372 33.8636C48.1221 31.4697 48.8796 28.6667 48.91 25.4545C48.8796 22.303 48.1372 19.5606 46.6827 17.2273C45.2281 14.8636 43.213 13.0455 40.6372 11.7727C38.0615 10.4697 35.0615 9.81818 31.6372 9.81818C28.1524 9.81818 25.1069 10.4697 22.5009 11.7727C19.8948 13.0455 17.8796 14.8636 16.4554 17.2273C15.0312 19.5606 14.3342 22.303 14.3645 25.4545C14.3342 28.6667 15.0463 31.4697 16.5009 33.8636C17.9857 36.2576 20.0312 38.1212 22.6372 39.4545C25.2433 40.7879 28.2433 41.4545 31.6372 41.4545Z" fill="black"/>
</svg>
