<svg width="64" height="96" viewBox="0 0 64 96" fill="none" xmlns="http://www.w3.org/2000/svg">
<path d="M31.0909 0.00426115C34.9091 0.0345651 38.7273 0.761837 42.5455 2.18608C46.3636 3.61032 49.8485 5.97396 53 9.27699C56.1515 12.5497 58.6818 17.0194 60.5909 22.6861C62.5 28.3527 63.4546 35.4588 63.4546 44.0043C63.4546 52.277 62.6667 59.6255 61.0909 66.0497C59.5455 72.4437 57.303 77.8376 54.3636 82.2315C51.4545 86.6255 47.9091 89.9588 43.7273 92.2315C39.5758 94.5043 34.8788 95.6406 29.6364 95.6406C24.4242 95.6406 19.7727 94.6103 15.6818 92.5497C11.6212 90.4588 8.28788 87.5649 5.68182 83.8679C3.10606 80.1406 1.45455 75.8224 0.727273 70.9134H11.8182C12.8182 75.1861 14.803 78.7164 17.7727 81.5043C20.7727 84.2618 24.7273 85.6406 29.6364 85.6406C36.8182 85.6406 42.4849 82.5043 46.6364 76.2315C50.8182 69.9588 52.9091 61.0952 52.9091 49.6406H52.1818C50.4849 52.1861 48.4697 54.3831 46.1364 56.2315C43.803 58.08 41.2121 59.5043 38.3636 60.5043C35.5152 61.5043 32.4848 62.0043 29.2727 62.0043C23.9394 62.0043 19.0455 60.6861 14.5909 58.0497C10.1667 55.3831 6.62121 51.7315 3.95455 47.0952C1.31818 42.4285 0 37.0952 0 31.0952C0 25.3982 1.27273 20.1861 3.81818 15.4588C6.39394 10.7012 10 6.91335 14.6364 4.09517C19.303 1.27699 24.7879 -0.0866456 31.0909 0.00426115ZM31.0909 10.0043C27.2727 10.0043 23.8333 10.9588 20.7727 12.8679C17.7424 14.7467 15.3333 17.2921 13.5455 20.5043C11.7879 23.6861 10.9091 27.2164 10.9091 31.0952C10.9091 34.974 11.7576 38.5043 13.4545 41.6861C15.1818 44.8376 17.5303 47.3527 20.5 49.2315C23.5 51.08 26.9091 52.0043 30.7273 52.0043C33.6061 52.0043 36.2879 51.4437 38.7727 50.3224C41.2576 49.1709 43.4242 47.6103 45.2727 45.6406C47.1515 43.6406 48.6212 41.3831 49.6818 38.8679C50.7424 36.3224 51.2727 33.6709 51.2727 30.9134C51.2727 27.277 50.3939 23.8679 48.6364 20.6861C46.9091 17.5043 44.5152 14.9285 41.4545 12.9588C38.4242 10.9891 34.9697 10.0043 31.0909 10.0043Z" fill="black"/>
</svg>
