<svg width="56" height="30" viewBox="0 0 56 30" fill="none" xmlns="http://www.w3.org/2000/svg">
<path d="M0 29.0909V0H19.2614V5.07102H6.15057V12.0028H17.983V17.0739H6.15057V29.0909H0Z" fill="#FF3B30"/>
<path d="M23.3984 29.0909V0H34.8757C37.0727 0 38.9477 0.392992 40.5007 1.17898C42.0632 1.95549 43.2517 3.05871 44.0661 4.48864C44.8899 5.90909 45.3018 7.58049 45.3018 9.50284C45.3018 11.4347 44.8852 13.0966 44.0518 14.4886C43.2185 15.8712 42.0111 16.9318 40.4297 17.6705C38.8577 18.4091 36.9543 18.7784 34.7195 18.7784H27.0348V13.8352H33.7251C34.8994 13.8352 35.8748 13.6742 36.6513 13.3523C37.4278 13.0303 38.0054 12.5473 38.3842 11.9034C38.7725 11.2595 38.9666 10.4593 38.9666 9.50284C38.9666 8.53693 38.7725 7.72254 38.3842 7.05966C38.0054 6.39678 37.4231 5.89489 36.6371 5.55398C35.8606 5.2036 34.8804 5.02841 33.6967 5.02841H29.549V29.0909H23.3984ZM39.1087 15.8523L46.3388 29.0909H39.549L32.4751 15.8523H39.1087Z" fill="#FF3B30"/>
<path d="M55.799 0V29.0909H49.6484V0H55.799Z" fill="#FF3B30"/>
</svg>
