<svg width="93" height="30" viewBox="0 0 93 30" fill="none" xmlns="http://www.w3.org/2000/svg">
<path d="M0 0.397727H7.58523L15.5966 19.9432H15.9375L23.9489 0.397727H31.5341V29.4886H25.5682V10.554H25.3267L17.7983 29.3466H13.7358L6.20739 10.483H5.96591V29.4886H0V0.397727Z" fill="#FF3B30"/>
<path d="M63.3345 14.9432C63.3345 18.1155 62.7332 20.8144 61.5305 23.0398C60.3374 25.2652 58.7086 26.965 56.6442 28.1392C54.5893 29.304 52.2786 29.8864 49.7124 29.8864C47.1271 29.8864 44.8071 29.2992 42.7521 28.125C40.6972 26.9508 39.0732 25.2509 37.88 23.0256C36.6868 20.8002 36.0902 18.1061 36.0902 14.9432C36.0902 11.7708 36.6868 9.07197 37.88 6.84659C39.0732 4.62121 40.6972 2.92614 42.7521 1.76136C44.8071 0.587122 47.1271 0 49.7124 0C52.2786 0 54.5893 0.587122 56.6442 1.76136C58.7086 2.92614 60.3374 4.62121 61.5305 6.84659C62.7332 9.07197 63.3345 11.7708 63.3345 14.9432ZM57.0987 14.9432C57.0987 12.8883 56.791 11.1553 56.1754 9.74432C55.5694 8.33333 54.7124 7.26326 53.6044 6.53409C52.4965 5.80493 51.1991 5.44034 49.7124 5.44034C48.2256 5.44034 46.9283 5.80493 45.8203 6.53409C44.7124 7.26326 43.8506 8.33333 43.2351 9.74432C42.629 11.1553 42.326 12.8883 42.326 14.9432C42.326 16.9981 42.629 18.7311 43.2351 20.142C43.8506 21.553 44.7124 22.6231 45.8203 23.3523C46.9283 24.0814 48.2256 24.446 49.7124 24.446C51.1991 24.446 52.4965 24.0814 53.6044 23.3523C54.7124 22.6231 55.5694 21.553 56.1754 20.142C56.791 18.7311 57.0987 16.9981 57.0987 14.9432Z" fill="#FF3B30"/>
<path d="M92.223 0.397727V29.4886H86.9105L74.2543 11.179H74.0412V29.4886H67.8906V0.397727H73.2884L85.8452 18.6932H86.1009V0.397727H92.223Z" fill="#FF3B30"/>
</svg>
