<svg width="81" height="30" viewBox="0 0 81 30" fill="none" xmlns="http://www.w3.org/2000/svg">
<path d="M16.7188 8.7642C16.6051 7.61837 16.1174 6.72822 15.2557 6.09375C14.3939 5.45928 13.2244 5.14205 11.7472 5.14205C10.7434 5.14205 9.89583 5.28409 9.20455 5.56818C8.51326 5.8428 7.98295 6.22633 7.61364 6.71875C7.25379 7.21117 7.07386 7.76989 7.07386 8.39489C7.05492 8.91572 7.16383 9.37027 7.40057 9.75852C7.64678 10.1468 7.98295 10.483 8.40909 10.767C8.83523 11.0417 9.32765 11.2831 9.88636 11.4915C10.4451 11.6903 11.0417 11.8608 11.6761 12.0028L14.2898 12.6278C15.5587 12.9119 16.7235 13.2907 17.7841 13.7642C18.8447 14.2377 19.7633 14.8201 20.5398 15.5114C21.3163 16.2027 21.9176 17.017 22.3438 17.9545C22.7794 18.892 23.0019 19.9669 23.0114 21.179C23.0019 22.9593 22.5473 24.5028 21.6477 25.8097C20.7576 27.107 19.4697 28.1155 17.7841 28.8352C16.108 29.5455 14.0862 29.9006 11.7188 29.9006C9.37027 29.9006 7.32481 29.5407 5.58239 28.821C3.84943 28.1013 2.49527 27.036 1.51989 25.625C0.553977 24.2045 0.0473485 22.4479 0 20.3551H5.9517C6.01799 21.3305 6.29735 22.1449 6.78977 22.7983C7.29167 23.4422 7.95928 23.9299 8.79261 24.2614C9.63542 24.5833 10.5871 24.7443 11.6477 24.7443C12.6894 24.7443 13.5938 24.5928 14.3608 24.2898C15.1373 23.9867 15.7386 23.5653 16.1648 23.0256C16.5909 22.4858 16.804 21.8655 16.804 21.1648C16.804 20.5114 16.6098 19.9621 16.2216 19.517C15.8428 19.072 15.2841 18.6932 14.5455 18.3807C13.8163 18.0682 12.9214 17.7841 11.8608 17.5284L8.69318 16.733C6.24053 16.1364 4.30398 15.2036 2.88352 13.9347C1.46307 12.6657 0.757576 10.9564 0.767046 8.80682C0.757576 7.04545 1.22633 5.50663 2.1733 4.19034C3.12973 2.87405 4.44129 1.84659 6.10795 1.10795C7.77462 0.369318 9.66856 0 11.7898 0C13.9489 0 15.8333 0.369318 17.4432 1.10795C19.0625 1.84659 20.322 2.87405 21.2216 4.19034C22.1212 5.50663 22.5852 7.03125 22.6136 8.7642H16.7188Z" fill="#FF3B30"/>
<path d="M45.1172 0.397727H51.2678V19.2898C51.2678 21.411 50.7611 23.267 49.7479 24.858C48.7441 26.4489 47.3378 27.6894 45.5291 28.5795C43.7204 29.4602 41.6134 29.9006 39.2081 29.9006C36.7933 29.9006 34.6816 29.4602 32.8729 28.5795C31.0642 27.6894 29.6579 26.4489 28.6541 24.858C27.6503 23.267 27.1484 21.411 27.1484 19.2898V0.397727H33.299V18.7642C33.299 19.8722 33.5405 20.857 34.0234 21.7188C34.5159 22.5805 35.2072 23.2576 36.0973 23.75C36.9875 24.2424 38.0244 24.4886 39.2081 24.4886C40.4013 24.4886 41.4382 24.2424 42.3189 23.75C43.209 23.2576 43.8956 22.5805 44.3786 21.7188C44.871 20.857 45.1172 19.8722 45.1172 18.7642V0.397727Z" fill="#FF3B30"/>
<path d="M80.6605 0.397727V29.4886H75.348L62.6918 11.179H62.4787V29.4886H56.3281V0.397727H61.7259L74.2827 18.6932H74.5384V0.397727H80.6605Z" fill="#FF3B30"/>
</svg>
