<svg width="82" height="30" viewBox="0 0 82 30" fill="none" xmlns="http://www.w3.org/2000/svg">
<path d="M0 5.07102V0H23.892V5.07102H14.9858V29.0909H8.90625V5.07102H0Z" fill="#FF3B30"/>
<path d="M27.8267 29.0909V0H33.9773V12.0028H46.4631V0H52.5994V29.0909H46.4631V17.0739H33.9773V29.0909H27.8267Z" fill="#FF3B30"/>
<path d="M75.6392 0H81.7898V18.892C81.7898 21.0133 81.2831 22.8693 80.2699 24.4602C79.2661 26.0511 77.8599 27.2917 76.0511 28.1818C74.2424 29.0625 72.1354 29.5028 69.7301 29.5028C67.3153 29.5028 65.2036 29.0625 63.3949 28.1818C61.5862 27.2917 60.1799 26.0511 59.1761 24.4602C58.1723 22.8693 57.6705 21.0133 57.6705 18.892V0H63.821V18.3665C63.821 19.4744 64.0625 20.4593 64.5455 21.321C65.0379 22.1828 65.7292 22.8598 66.6193 23.3523C67.5095 23.8447 68.5464 24.0909 69.7301 24.0909C70.9233 24.0909 71.9602 23.8447 72.8409 23.3523C73.7311 22.8598 74.4176 22.1828 74.9006 21.321C75.393 20.4593 75.6392 19.4744 75.6392 18.3665V0Z" fill="#FF3B30"/>
</svg>
