<svg width="77" height="30" viewBox="0 0 77 30" fill="none" xmlns="http://www.w3.org/2000/svg">
<path d="M0 5.07102V0H23.892V5.07102H14.9858V29.0909H8.90625V5.07102H0Z" fill="#FF3B30"/>
<path d="M45.7955 0H51.946V18.892C51.946 21.0133 51.4394 22.8693 50.4261 24.4602C49.4223 26.0511 48.0161 27.2917 46.2074 28.1818C44.3987 29.0625 42.2917 29.5028 39.8864 29.5028C37.4716 29.5028 35.3598 29.0625 33.5511 28.1818C31.7424 27.2917 30.3362 26.0511 29.3324 24.4602C28.3286 22.8693 27.8267 21.0133 27.8267 18.892V0H33.9773V18.3665C33.9773 19.4744 34.2188 20.4593 34.7017 21.321C35.1941 22.1828 35.8854 22.8598 36.7756 23.3523C37.6657 23.8447 38.7027 24.0909 39.8864 24.0909C41.0795 24.0909 42.1165 23.8447 42.9972 23.3523C43.8873 22.8598 44.5739 22.1828 45.0568 21.321C45.5492 20.4593 45.7955 19.4744 45.7955 18.3665V0Z" fill="#FF3B30"/>
<path d="M57.0064 29.0909V0H76.6087V5.07102H63.157V12.0028H75.6001V17.0739H63.157V24.0199H76.6655V29.0909H57.0064Z" fill="#FF3B30"/>
</svg>
