<svg width="93" height="30" viewBox="0 0 93 30" fill="none" xmlns="http://www.w3.org/2000/svg">
<path d="M8.32386 29.0909L0 0H6.71875L11.5341 20.2131H11.7756L17.0881 0H22.8409L28.1392 20.2557H28.3949L33.2102 0H39.929L31.6051 29.0909H25.6108L20.071 10.071H19.8438L14.3182 29.0909H8.32386Z" fill="#FF3B30"/>
<path d="M43.2209 29.0909V0H62.8232V5.07102H49.3714V12.0028H61.8146V17.0739H49.3714V24.0199H62.88V29.0909H43.2209Z" fill="#FF3B30"/>
<path d="M78.0256 29.0909H67.7131V0H78.1108C81.0369 0 83.5559 0.582387 85.6676 1.74716C87.7794 2.90246 89.4034 4.56439 90.5398 6.73295C91.6856 8.90152 92.2585 11.4962 92.2585 14.517C92.2585 17.5473 91.6856 20.1515 90.5398 22.3295C89.4034 24.5076 87.7699 26.179 85.6392 27.3438C83.518 28.5085 80.9801 29.0909 78.0256 29.0909ZM73.8636 23.821H77.7699C79.5881 23.821 81.1174 23.4991 82.358 22.8551C83.608 22.2017 84.5455 21.1932 85.1705 19.8295C85.8049 18.4564 86.1222 16.6856 86.1222 14.517C86.1222 12.3674 85.8049 10.6108 85.1705 9.24716C84.5455 7.88352 83.6127 6.87973 82.3722 6.2358C81.1316 5.59186 79.6023 5.26989 77.7841 5.26989H73.8636V23.821Z" fill="#FF3B30"/>
</svg>
